<svg version="1.1" xmlns="http://www.w3.org/2000/svg" width="400" height="400" viewBox="0 0 400 400">
  <defs/>
  <g>
    <path fill="rgb(220,220,220)" stroke="none" paint-order="stroke fill markers" d=" M 25 200 C 25 103.35016878500001 103.35016878500001 25 200 25 C 296.649831215 25 375 103.35016878500001 375 200 C 375 296.649831215 296.649831215 375 200 375 C 103.35016878500001 375 25 296.649831215 25 200" fill-opacity="1"/>
    <path fill="rgb(153,19,19)" stroke="none" paint-order="stroke fill markers" d=" M 125.835245 247.441295 C 119.67067250000001 220.13458500000002 147.8779925 194.66654499999999 188.8380575 190.55683 C 229.7981225 186.447115 268.0001825 205.251995 274.164755 232.558705 C 275.278415 237.49179 275.278415 242.50821 274.164755 247.441295 L 200 240 Z" fill-opacity="1"/>
    <path fill="none" stroke="rgb(255,250,20)" paint-order="fill stroke markers" d=" M 125.835245 247.441295 C 119.67067250000001 220.13458500000002 147.8779925 194.66654499999999 188.8380575 190.55683 C 229.7981225 186.447115 268.0001825 205.251995 274.164755 232.558705 C 275.278415 237.49179 275.278415 242.50821 274.164755 247.441295" stroke-opacity="1" stroke-linecap="round" stroke-miterlimit="10" stroke-width="4"/>
    <path fill="none" stroke="rgb(255,250,20)" paint-order="fill stroke markers" d=" M 200 165 L 200 100" stroke-opacity="1" stroke-linecap="round" stroke-miterlimit="10" stroke-width="8"/>
    <path fill="none" stroke="rgb(255,250,20)" paint-order="fill stroke markers" d=" M 258.7785252292473 179.32372542187895 L 282.28993532094626 126.73762078750735" stroke-opacity="1" stroke-linecap="round" stroke-miterlimit="10" stroke-width="8"/>
    <path fill="none" stroke="rgb(255,250,20)" paint-order="fill stroke markers" d=" M 295.10565162951536 216.82372542187895 L 333.1479122813215 196.73762078750735" stroke-opacity="1" stroke-linecap="round" stroke-miterlimit="10" stroke-width="8"/>
    <path fill="none" stroke="rgb(255,250,20)" paint-order="fill stroke markers" d=" M 104.89434837048464 216.82372542187895 L 66.85208771867849 196.73762078750738" stroke-opacity="1" stroke-linecap="round" stroke-miterlimit="10" stroke-width="8"/>
    <path fill="none" stroke="rgb(255,250,20)" paint-order="fill stroke markers" d=" M 141.22147477075268 179.32372542187895 L 117.71006467905374 126.73762078750737" stroke-opacity="1" stroke-linecap="round" stroke-miterlimit="10" stroke-width="8"/>
  </g>
</svg>
